<svg width="370" height="360" viewBox="0 0 370 360" fill="none" xmlns="http://www.w3.org/2000/svg">
<g clip-path="url(#clip0_31_178)">
<path d="M115.74 119.24C95.13 119.24 78.36 136.01 78.36 156.62H81.36C81.36 137.66 96.78 122.24 115.74 122.24C134.7 122.24 150.12 137.66 150.12 156.62H153.12C153.12 136.01 136.35 119.24 115.74 119.24Z" fill="#148DE0"/>
<path d="M115.74 137.03C104.94 137.03 96.15 145.82 96.15 156.62H99.15C99.15 147.47 106.59 140.03 115.74 140.03C124.89 140.03 132.33 147.47 132.33 156.62H135.33C135.33 145.82 126.54 137.03 115.74 137.03Z" fill="#148DE0"/>
<path d="M267.87 66.42C257.21 28.17 222.08 0 180.46 0C138.84 0 102.17 29.39 92.38 68.92C53.63 79.25 25 114.65 25 156.61H28C28 116.59 54.93 82.75 91.62 72.24C92.7 71.93 93.78 71.64 94.88 71.38C100.03 70.12 105.35 69.31 110.81 69.01C111.87 68.95 112.94 68.91 114.01 68.89C114.58 68.89 115.16 68.87 115.74 68.87C120.38 68.87 124.93 69.23 129.38 69.93C130.39 70.09 131.4 70.26 132.41 70.46C137.36 71.41 142.16 72.79 146.78 74.55C147.72 74.89 148.65 75.26 149.57 75.66C154.15 77.57 158.54 79.87 162.69 82.52C163.55 83.06 164.39 83.61 165.22 84.19C172.71 89.32 179.35 95.59 184.93 102.73C181.76 107.01 178.96 111.58 176.57 116.39C169.08 105.09 158.53 95.99 146.1 90.28C145.12 89.83 144.13 89.4 143.13 89C138.52 87.12 133.67 85.7 128.64 84.8C127.66 84.63 126.67 84.47 125.67 84.34C122.42 83.89 119.11 83.66 115.74 83.66C114.1 83.66 112.46 83.71 110.85 83.83C109.83 83.89 108.82 83.98 107.82 84.09C102.63 84.65 97.6 85.76 92.79 87.36C91.76 87.7 90.75 88.06 89.75 88.45C62.32 98.94 42.79 125.54 42.79 156.61H45.79C45.79 126.3 65.17 100.43 92.2 90.74C92.37 90.67 92.54 90.61 92.72 90.56C97.47 88.89 102.45 87.73 107.6 87.13C108.6 87.01 109.6 86.92 110.62 86.84C112.31 86.72 114.02 86.66 115.74 86.66C119.02 86.66 122.25 86.89 125.41 87.33C126.41 87.46 127.4 87.62 128.39 87.8C148.04 91.4 164.81 103.25 175.06 119.59C172.08 126.24 169.87 133.3 168.56 140.68C161.7 118.01 140.63 101.45 115.74 101.45C85.33 101.45 60.58 126.2 60.58 156.61H63.58C63.58 127.85 86.98 104.45 115.74 104.45C142.12 104.45 163.98 124.14 167.42 149.58C167.24 151.9 167.15 154.25 167.15 156.61H170.15H170.91C170.91 154.21 170.74 151.84 170.44 149.52C172.32 126.17 183.38 105.37 200 90.74H200.05C200.05 90.74 200.05 90.71 200.05 90.7C215.5 77.12 235.75 68.87 257.89 68.87C306.27 68.87 345.63 108.23 345.63 156.61H348.63C348.63 109.95 313.22 71.4 267.87 66.42ZM115.74 65.87C115.52 65.87 115.3 65.87 115.08 65.88C125.12 39.54 150.64 20.79 180.46 20.79C210.28 20.79 236.28 39.91 246.13 66.64C241.11 67.29 236.23 68.36 231.5 69.8C223.23 49.74 203.47 35.59 180.46 35.59C157.45 35.59 139.49 48.49 130.62 67.11C125.78 66.3 120.81 65.88 115.74 65.88V65.87ZM133.7 67.66C142.22 50.44 159.98 38.58 180.46 38.58C202.14 38.58 220.76 51.87 228.63 70.72C223.93 72.33 219.39 74.31 215.07 76.64C209.49 63 196.08 53.37 180.46 53.37C166.72 53.37 154.7 60.82 148.21 71.89C143.54 70.09 138.7 68.67 133.7 67.67V67.66ZM151.03 73.01C157.05 63.04 167.99 56.36 180.46 56.36C194.96 56.36 207.38 65.39 212.42 78.11C207.91 80.73 203.65 83.73 199.68 87.06C197.96 78.02 190 71.15 180.46 71.15C173.67 71.15 167.67 74.63 164.16 79.9C160 77.26 155.61 74.95 151.03 73.01ZM186.81 100.28C181.09 93.07 174.3 86.73 166.66 81.54C169.64 77.09 174.71 74.15 180.46 74.15C189.16 74.15 196.3 80.88 196.98 89.41C193.3 92.75 189.9 96.39 186.8 100.28H186.81ZM249.19 66.29C239.12 38.06 212.12 17.79 180.46 17.79C148.8 17.79 122.01 37.89 111.84 65.96C106.31 66.19 100.92 66.92 95.69 68.11C105.69 30.66 139.9 3 180.46 3C221.02 3 254 29.69 264.66 66.13C262.43 65.96 260.17 65.88 257.89 65.88C254.95 65.88 252.05 66.03 249.19 66.3V66.29Z" fill="#148DE0"/>
<path d="M257.89 83.6602C217.66 83.6602 184.94 116.39 184.94 156.61H187.94C187.94 118.04 219.32 86.6602 257.89 86.6602C296.46 86.6602 327.84 118.04 327.84 156.61H330.84C330.84 116.38 298.11 83.6602 257.89 83.6602Z" fill="#148DE0"/>
<path d="M257.89 101.45C227.47 101.45 202.72 126.2 202.72 156.62H205.72C205.72 127.86 229.12 104.45 257.89 104.45C286.66 104.45 310.06 127.85 310.06 156.62H313.06C313.06 126.2 288.31 101.45 257.89 101.45Z" fill="#148DE0"/>
<path d="M257.89 119.24C237.28 119.24 220.51 136.01 220.51 156.62H223.51C223.51 137.66 238.93 122.24 257.89 122.24C276.85 122.24 292.27 137.66 292.27 156.62H295.27C295.27 136.01 278.5 119.24 257.89 119.24Z" fill="#148DE0"/>
<path d="M257.89 137.03C247.09 137.03 238.3 145.82 238.3 156.62H241.3C241.3 147.47 248.74 140.03 257.89 140.03C267.04 140.03 274.48 147.47 274.48 156.62H277.48C277.48 145.82 268.69 137.03 257.89 137.03Z" fill="#148DE0"/>
</g>
<g clip-path="url(#clip1_31_178)">
<path d="M27.3199 191H24.3199V252.68H27.3199V191Z" fill="#0091E8"/>
<path d="M27.3199 261.67H24.3199V323.35H27.3199V261.67Z" fill="#0091E8"/>
<path d="M51.6399 217.34H48.6399V279.02H51.6399V217.34Z" fill="#0091E8"/>
<path d="M51.6399 297.65H48.6399V359.33H51.6399V297.65Z" fill="#0091E8"/>
<path d="M75.97 191H72.97V252.68H75.97V191Z" fill="#0091E8"/>
<path d="M75.97 261.67H72.97V323.35H75.97V261.67Z" fill="#0091E8"/>
<path d="M100.29 217.34H97.2899V279.02H100.29V217.34Z" fill="#0091E8"/>
<path d="M100.29 297.65H97.2899V359.33H100.29V297.65Z" fill="#0091E8"/>
<path d="M124.61 191H121.61V252.68H124.61V191Z" fill="#0091E8"/>
<path d="M124.61 261.67H121.61V323.35H124.61V261.67Z" fill="#0091E8"/>
<path d="M148.93 217.34H145.93V279.02H148.93V217.34Z" fill="#0091E8"/>
<path d="M148.93 297.65H145.93V359.33H148.93V297.65Z" fill="#0091E8"/>
<path d="M173.25 191H170.25V252.68H173.25V191Z" fill="#0091E8"/>
<path d="M173.25 261.67H170.25V323.35H173.25V261.67Z" fill="#0091E8"/>
</g>
<g clip-path="url(#clip2_31_178)">
<path d="M199 217.34H196V279.02H199V217.34Z" fill="#0091E8"/>
<path d="M199 297.65H196V359.33H199V297.65Z" fill="#0091E8"/>
<path d="M223.32 191H220.32V252.68H223.32V191Z" fill="#0091E8"/>
<path d="M223.32 261.67H220.32V323.35H223.32V261.67Z" fill="#0091E8"/>
<path d="M247.64 217.34H244.64V279.02H247.64V217.34Z" fill="#0091E8"/>
<path d="M247.64 297.65H244.64V359.33H247.64V297.65Z" fill="#0091E8"/>
<path d="M271.97 191H268.97V252.68H271.97V191Z" fill="#0091E8"/>
<path d="M271.97 261.67H268.97V323.35H271.97V261.67Z" fill="#0091E8"/>
<path d="M296.29 217.34H293.29V279.02H296.29V217.34Z" fill="#0091E8"/>
<path d="M296.29 297.65H293.29V359.33H296.29V297.65Z" fill="#0091E8"/>
<path d="M320.61 191H317.61V252.68H320.61V191Z" fill="#0091E8"/>
<path d="M320.61 261.67H317.61V323.35H320.61V261.67Z" fill="#0091E8"/>
<path d="M344.93 217.34H341.93V279.02H344.93V217.34Z" fill="#0091E8"/>
<path d="M344.93 297.65H341.93V359.33H344.93V297.65Z" fill="#0091E8"/>
</g>
<defs>
<clipPath id="clip0_31_178">
<rect width="323.63" height="156.62" fill="white" transform="translate(25)"/>
</clipPath>
<clipPath id="clip1_31_178">
<rect width="173.25" height="168.33" fill="white" transform="translate(0 191)"/>
</clipPath>
<clipPath id="clip2_31_178">
<rect width="173.25" height="168.33" fill="white" transform="translate(196 191)"/>
</clipPath>
</defs>
</svg>
