<svg width="532" height="215" viewBox="0 0 532 215" fill="none" xmlns="http://www.w3.org/2000/svg">
<g clip-path="url(#clip0_20_304)">
<path d="M127.72 34.93C161.63 34.93 178.86 26.74 195.51 18.82C211.87 11.04 228.78 3 262.02 3C295.26 3 312.18 11.04 328.53 18.82C345.19 26.74 362.42 34.93 396.33 34.93C430.24 34.93 447.48 26.74 464.13 18.82C480.49 11.04 497.41 3 530.65 3V0C496.73 0 479.5 8.19 462.85 16.11C446.49 23.89 429.57 31.93 396.33 31.93C363.09 31.93 346.18 23.89 329.82 16.11C313.16 8.19 295.94 0 262.02 0C228.1 0 210.88 8.19 194.22 16.11C177.87 23.89 160.95 31.93 127.72 31.93C94.49 31.93 77.56 23.89 61.21 16.11C45.67 8.72 29.62 1.1 0 0.11V3.11C28.96 4.1 44.68 11.57 59.92 18.82C76.58 26.74 93.8 34.93 127.72 34.93Z" fill="#148DE0"/>
<path d="M127.72 56.7904C161.63 56.7904 178.86 48.6004 195.51 40.6804C211.87 32.9004 228.78 24.8604 262.02 24.8604C295.26 24.8604 312.18 32.9004 328.53 40.6804C345.19 48.6004 362.42 56.7904 396.33 56.7904C430.24 56.7904 447.48 48.6004 464.13 40.6804C480.49 32.9004 497.41 24.8604 530.65 24.8604V21.8604C496.73 21.8604 479.5 30.0504 462.85 37.9704C446.49 45.7404 429.57 53.7904 396.33 53.7904C363.09 53.7904 346.18 45.7404 329.82 37.9704C313.16 30.0504 295.94 21.8604 262.02 21.8604C228.1 21.8604 210.88 30.0504 194.22 37.9704C177.87 45.7404 160.95 53.7904 127.72 53.7904C94.49 53.7904 77.56 45.7404 61.21 37.9704C45.67 30.5804 29.62 22.9604 0 21.9704V24.9704C28.96 25.9604 44.68 33.4304 59.92 40.6804C76.58 48.6004 93.8 56.7904 127.72 56.7904Z" fill="#148DE0"/>
<path d="M93.67 81.04C110.02 73.26 126.94 65.22 160.18 65.22C193.42 65.22 210.33 73.26 226.69 81.04C243.34 88.96 260.57 97.15 294.48 97.15C328.39 97.15 345.62 88.96 362.28 81.04C378.64 73.26 395.55 65.22 428.79 65.22C462.03 65.22 478.94 73.26 495.3 81.04C505.68 85.97 516.28 91.01 531 94.11V91.03C516.89 87.98 506.64 83.1 496.59 78.33C493.84 77.02 491.07 75.71 488.22 74.42C499.2 70.97 512.49 68.57 530.65 68.57V65.57C510.26 65.57 495.91 68.53 484.09 72.61H484.08C476.85 69.56 468.88 66.8 459.12 64.9C460.81 64.11 462.48 63.32 464.14 62.53C480.5 54.76 497.42 46.71 530.66 46.71V43.71C496.74 43.71 479.51 51.9 462.86 59.82C459.92 61.22 456.96 62.63 453.89 63.99C446.61 62.87 438.37 62.22 428.8 62.22C401.46 62.22 384.97 67.54 370.87 73.76C353.22 70.93 341.37 65.31 329.83 59.82C313.17 51.9 295.95 43.71 262.03 43.71C228.11 43.71 210.89 51.9 194.23 59.82C191.29 61.22 188.33 62.62 185.27 63.99C178 62.87 169.76 62.22 160.19 62.22C132.82 62.22 116.33 67.55 102.23 73.77C84.59 70.94 72.76 65.31 61.22 59.82C45.68 52.43 29.63 44.81 0.0100098 43.82V46.82C28.97 47.81 44.69 55.29 59.93 62.53C70.72 67.66 81.75 72.91 97.41 75.96C95.72 76.75 94.05 77.54 92.39 78.33C86.15 81.29 79.82 84.3 72.54 86.88C68.61 85.2 64.9 83.43 61.22 81.68C45.68 74.29 29.63 66.67 0.0100098 65.68V68.68C28.97 69.67 44.69 77.14 59.93 84.39C62.68 85.69 65.45 87.01 68.3 88.3C57.31 91.75 44.03 94.15 25.88 94.15C15.94 94.15 7.45001 93.43 0.0100098 92.21V95.26C7.48001 96.45 15.97 97.15 25.88 97.15C59.8 97.15 77.02 88.96 93.68 81.04H93.67ZM336.9 88.3C325.92 91.75 312.64 94.15 294.48 94.15C261.25 94.15 244.33 86.1 227.97 78.33C225.22 77.02 222.45 75.7 219.59 74.42C230.58 70.98 243.86 68.57 262.02 68.57C295.26 68.57 312.18 76.61 328.53 84.39C331.28 85.7 334.05 87.01 336.91 88.3H336.9ZM195.51 62.53C211.87 54.76 228.78 46.71 262.02 46.71C295.26 46.71 312.18 54.76 328.53 62.53C339.32 67.66 350.37 72.9 366.02 75.96C364.33 76.75 362.66 77.54 361 78.33C354.76 81.29 348.43 84.3 341.15 86.88C337.23 85.2 333.51 83.44 329.83 81.68C313.17 73.76 295.95 65.57 262.03 65.57C241.65 65.57 227.3 68.53 215.48 72.61H215.47C208.25 69.56 200.28 66.8 190.52 64.9H190.51C192.2 64.11 193.87 63.32 195.53 62.53H195.51Z" fill="#148DE0"/>
<path d="M531 114.51V112.89C516.89 109.83 506.64 104.96 496.59 100.18C479.93 92.2603 462.71 84.0703 428.79 84.0703C394.87 84.0703 377.65 92.2603 360.99 100.18C344.63 107.96 327.72 116 294.48 116C290.8 116 287.32 115.9 284.02 115.71C280.81 115.32 277.41 115.01 273.8 114.8C253.43 112.29 240.54 106.16 227.97 100.18C211.32 92.2603 194.09 84.0703 160.18 84.0703C126.27 84.0703 109.04 92.2603 92.38 100.18C76.02 107.96 59.11 116 25.87 116C22.19 116 18.71 115.9 15.41 115.71C12.19 115.32 8.79 115.01 5.17 114.8C3.39 114.59 1.67 114.34 0 114.06V117.59C1.67 117.64 3.3 117.71 4.88 117.8C8.09 118.19 11.49 118.5 15.1 118.71C35.47 121.22 48.36 127.35 60.92 133.33C61.26 133.49 61.6 133.65 61.94 133.81C63.33 134.48 64.73 135.14 66.14 135.8C73.36 139.15 80.99 142.4 90.28 144.89C91.77 145.28 93.3 145.66 94.89 146.02C104.17 148.12 115.1 149.44 128.72 149.44C161.16 149.44 178.33 141.95 194.34 134.37C195.07 134.02 195.79 133.68 196.52 133.33C197.22 133 197.92 132.67 198.62 132.33C205.89 128.89 213.4 125.47 222.51 122.77C223.95 122.35 225.43 121.94 226.95 121.56C236.67 119.1 248.23 117.51 263.03 117.51C266.71 117.51 270.19 117.61 273.49 117.8C276.71 118.19 280.11 118.5 283.73 118.71C304.09 121.23 316.98 127.35 329.54 133.33C329.88 133.49 330.21 133.65 330.55 133.81C331.95 134.47 333.34 135.14 334.76 135.8C341.98 139.15 349.61 142.4 358.89 144.88C360.38 145.28 361.91 145.66 363.5 146.02C372.78 148.12 383.71 149.44 397.34 149.44C429.78 149.44 446.95 141.95 462.96 134.37C463.69 134.02 464.41 133.68 465.14 133.33C465.84 133 466.54 132.67 467.24 132.34C474.51 128.89 482.02 125.47 491.13 122.78C492.57 122.35 494.05 121.94 495.57 121.56C505.15 119.14 516.51 117.56 531 117.51H531.65V114.51H531ZM128.72 146.44C117.21 146.44 107.66 145.48 99.41 143.89C114.17 137.07 130.8 130.78 160.18 130.78C171.68 130.78 181.23 131.74 189.47 133.33C174.71 140.16 158.09 146.44 128.72 146.44ZM195.23 130.62C194.82 130.81 194.42 131.01 194.01 131.2C184.73 129.1 173.8 127.78 160.18 127.78C127.73 127.78 110.57 135.27 94.55 142.86C85.2 140.66 77.56 137.66 70.47 134.48C79.18 131.64 86.48 128.17 93.67 124.75C110.02 116.97 126.94 108.93 160.18 108.93C187.9 108.93 204.26 114.52 218.41 120.89C209.71 123.73 202.42 127.2 195.23 130.62ZM222.74 119.57C207.56 112.51 190.56 105.93 160.18 105.93C126.26 105.93 109.04 114.12 92.38 122.04C84.44 125.81 76.38 129.65 66.39 132.6C64.98 131.94 63.6 131.28 62.21 130.62C53.23 126.35 44.1 122.01 32.27 118.9C62.02 117.94 78.09 110.3 93.67 102.89C110.02 95.1203 126.94 87.0703 160.18 87.0703C193.42 87.0703 210.33 95.1203 226.69 102.89C235.67 107.16 244.82 111.51 256.66 114.61C242.84 115.05 231.97 116.94 222.74 119.57ZM397.34 146.44C385.83 146.44 376.28 145.48 368.03 143.89C382.79 137.07 399.41 130.78 428.79 130.78C440.3 130.78 449.85 131.74 458.09 133.33C443.33 140.16 426.71 146.44 397.34 146.44ZM463.85 130.62C463.44 130.81 463.04 131.01 462.63 131.2C453.35 129.1 442.42 127.78 428.79 127.78C396.35 127.78 379.18 135.27 363.17 142.86C353.82 140.66 346.18 137.66 339.09 134.48C347.79 131.64 355.09 128.17 362.28 124.75C378.64 116.97 395.55 108.93 428.79 108.93C456.51 108.93 472.87 114.52 487.03 120.89C478.33 123.73 471.04 127.2 463.85 130.62ZM491.36 119.57C476.17 112.51 459.19 105.93 428.79 105.93C394.87 105.93 377.65 114.12 360.99 122.04C353.06 125.81 344.99 129.65 335 132.59C333.6 131.94 332.21 131.28 330.83 130.62C321.86 126.35 312.72 122.01 300.89 118.9C330.64 117.94 346.7 110.29 362.28 102.89C378.64 95.1203 395.55 87.0703 428.79 87.0703C462.03 87.0703 478.94 95.1203 495.3 102.89C504.28 107.16 513.43 111.51 525.28 114.61C511.46 115.05 500.59 116.94 491.36 119.57Z" fill="#148DE0"/>
<path d="M525.28 136.47C511.47 136.91 500.6 138.8 491.37 141.42C489.88 141.85 488.44 142.29 487.04 142.75C478.34 145.59 471.04 149.06 463.85 152.48C447.49 160.25 430.58 168.29 397.34 168.29C369.61 168.29 353.25 162.7 339.09 156.33C337.7 155.71 336.34 155.08 334.99 154.45C333.59 153.79 332.21 153.14 330.83 152.48C321.86 148.21 312.72 143.87 300.89 140.76C295.83 139.44 290.27 138.34 284.02 137.57C280.81 137.18 277.41 136.87 273.8 136.66C270.4 136.47 266.82 136.37 263.03 136.37C260.84 136.37 258.72 136.4 256.66 136.47C242.85 136.91 231.98 138.8 222.75 141.42C221.26 141.85 219.82 142.29 218.42 142.75C209.72 145.59 202.42 149.06 195.23 152.48C178.87 160.25 161.96 168.29 128.72 168.29C101 168.29 84.63 162.7 70.48 156.33C69.09 155.71 67.72 155.08 66.37 154.45C64.97 153.79 63.59 153.14 62.21 152.48C53.23 148.21 44.1 143.87 32.27 140.76C27.21 139.44 21.66 138.34 15.41 137.57C12.19 137.18 8.79 136.87 5.17 136.66C3.49 136.57 1.77 136.5 0 136.44V139.45C1.67 139.5 3.3 139.57 4.88 139.66C8.49 139.86 11.89 140.17 15.1 140.57C35.47 143.08 48.36 149.21 60.92 155.18C61.26 155.34 61.6 155.5 61.94 155.66C63.34 156.33 64.74 156.99 66.16 157.65C81.35 164.72 98.34 171.29 128.72 171.29C162.64 171.29 179.86 163.1 196.52 155.18C204.46 151.4 212.53 147.57 222.53 144.63C223.97 144.2 225.45 143.8 226.97 143.41C236.69 140.96 248.24 139.37 263.03 139.37C266.71 139.37 270.19 139.47 273.49 139.66C277.11 139.86 280.51 140.17 283.73 140.57C304.09 143.09 316.98 149.21 329.54 155.18C329.88 155.34 330.21 155.5 330.55 155.66C331.95 156.32 333.35 156.99 334.77 157.65C349.96 164.71 366.94 171.29 397.34 171.29C431.26 171.29 448.48 163.1 465.14 155.18C473.08 151.41 481.15 147.57 491.14 144.63C492.59 144.2 494.07 143.8 495.59 143.41C505.16 141 516.52 139.42 531 139.37H531.65V136.37H531C529.04 136.38 527.13 136.41 525.28 136.47Z" fill="#148DE0"/>
<path d="M525.24 158.32C495.49 159.28 479.43 166.93 463.85 174.33C447.49 182.11 430.58 190.15 397.34 190.15C364.1 190.15 347.19 182.11 330.83 174.33C321.85 170.06 312.7 165.71 300.85 162.61C295.8 161.29 290.25 160.19 284.02 159.42C280.81 159.03 277.41 158.72 273.8 158.51C270.4 158.32 266.82 158.22 263.03 158.22C260.82 158.22 258.69 158.25 256.62 158.32C226.87 159.28 210.81 166.93 195.23 174.33C178.87 182.11 161.96 190.15 128.72 190.15C95.48 190.15 78.57 182.11 62.21 174.33C53.22 170.06 44.08 165.71 32.23 162.61C27.18 161.29 21.64 160.19 15.41 159.42C12.19 159.03 8.79 158.72 5.17 158.51C3.49 158.42 1.77 158.35 0 158.29V161.3C1.67 161.35 3.3 161.42 4.88 161.51C8.49 161.71 11.89 162.02 15.1 162.42C35.47 164.93 48.36 171.06 60.92 177.04C77.58 184.96 94.81 193.15 128.72 193.15C162.63 193.15 179.86 184.96 196.52 177.04C212.88 169.26 229.79 161.22 263.03 161.22C266.71 161.22 270.19 161.32 273.49 161.51C277.11 161.71 280.51 162.02 283.73 162.42C304.09 164.94 316.98 171.06 329.54 177.04C346.2 184.96 363.42 193.15 397.34 193.15C431.26 193.15 448.48 184.96 465.14 177.04C481.39 169.31 498.19 161.33 531 161.22H531.65V158.22H531C529.02 158.23 527.1 158.26 525.24 158.32Z" fill="#148DE0"/>
<path d="M463.85 196.19C447.49 203.96 430.58 212.01 397.34 212.01C364.1 212.01 347.19 203.96 330.83 196.19C314.17 188.27 296.94 180.08 263.03 180.08C229.12 180.08 211.89 188.27 195.23 196.19C178.87 203.96 161.96 212.01 128.72 212.01C95.48 212.01 78.57 203.96 62.21 196.19C46.49 188.72 30.27 181 0 180.15V183.16C29.6 184 45.51 191.57 60.92 198.9C77.58 206.82 94.81 215.01 128.72 215.01C162.63 215.01 179.86 206.82 196.52 198.9C212.88 191.12 229.79 183.08 263.03 183.08C296.27 183.08 313.18 191.12 329.54 198.9C346.2 206.82 363.42 215.01 397.34 215.01C431.26 215.01 448.48 206.82 465.14 198.9C481.39 191.17 498.19 183.19 531 183.08H531.65V180.08H531C497.51 180.19 480.4 188.32 463.85 196.19Z" fill="#148DE0"/>
</g>
<defs>
<clipPath id="clip0_20_304">
<rect width="531.65" height="215.01" fill="white"/>
</clipPath>
</defs>
</svg>
